#N canvas 238 178 1447 853 12;
#X floatatom 76 483 9 0 0 0 - - - 0;
#X floatatom 328 483 9 0 0 0 - - - 0;
#X floatatom 580 485 9 0 0 0 - - - 0;
#X floatatom 833 483 9 0 0 0 - - - 0;
#X floatatom 1085 485 9 0 0 0 - - - 0;
#X obj 76 28 netreceive -u -b 12345;
#X obj 76 68 oscparse;
#X obj 76 104 list trim;
#X obj 78 260 route distance;
#X obj 76 424 route 1 2 3 4 5, f 183;
#X obj 304 182 s rampSpeed;
#X obj 308 24 loadbang;
#X obj 430 183 s base1;
#X obj 505 183 s base2;
#X obj 580 183 s base3;
#X obj 650 184 s base4;
#X obj 715 184 s base5;
#X obj 961 183 s setEnv;
#X obj 818 183 s minMax;
#X obj 818 146 pack f f;
#X msg 888 68 100;
#X msg 961 68 0 53.0973 1 215.421 1 50.0658 0 681.415 0, f 26;
#X obj 156 483 r base1;
#X obj 491 481 r base2;
#X obj 743 481 r base3;
#X obj 996 481 r base4;
#X obj 1248 481 r base5;
#X text 196 67 set ramp time;
#X text 430 27 set base frequencies;
#X text 818 27 set time ranges;
#X text 1314 31 set envelope;
#X msg 818 68 20000;
#X obj 85 741 dac~ 1 2 3 4 5;
#X obj 1188 88 cyclone/prepend set;
#X obj 1188 10 else/function 113 56 empty empty 0 1 228 228 228 55 55 55 0 0 0 0 0 53.0973 1 215.421 1 50.0658 0 681.415 0;
#X obj 353 738 else/meter~;
#X obj 305 141 else/ms2samps;
#X obj 417 738 else/meter~;
#X obj 479 739 else/meter~;
#X obj 539 739 else/meter~;
#X obj 603 739 else/meter~;
#X obj 76 543 myosc;
#X obj 327 542 myosc;
#X obj 569 536 myosc;
#X obj 770 535 myosc;
#X obj 1017 542 myosc;
#X msg 431 78 82.4;
#X msg 505 68 164.81;
#X msg 580 68 155.56;
#X msg 650 68 97.999;
#X msg 715 68 110;
#X obj 304 102 * 60000;
#X obj 797 761 dac~ 1 2;
#X obj 822 720 *~ 0.5;
#X msg 306 69 15;
#X text 867 756 solo per test da computer;
#X text 84 764 collegare myosc 1 e 2 per 5 canali;
#X obj 207 260 route breath;
#X obj 205 340 comport 1 9600;
#X connect 0 0 41 0;
#X connect 1 0 42 0;
#X connect 2 0 43 0;
#X connect 3 0 44 0;
#X connect 4 0 45 0;
#X connect 5 0 6 0;
#X connect 6 0 7 0;
#X connect 7 0 8 0;
#X connect 7 0 57 0;
#X connect 8 0 9 0;
#X connect 9 0 0 0;
#X connect 9 1 1 0;
#X connect 9 2 2 0;
#X connect 9 3 3 0;
#X connect 9 4 4 0;
#X connect 11 0 54 0;
#X connect 11 0 47 0;
#X connect 11 0 48 0;
#X connect 11 0 50 0;
#X connect 11 0 49 0;
#X connect 11 0 20 0;
#X connect 11 0 21 0;
#X connect 11 0 31 0;
#X connect 11 0 46 0;
#X connect 19 0 18 0;
#X connect 20 0 19 1;
#X connect 21 0 17 0;
#X connect 21 0 34 0;
#X connect 22 0 41 1;
#X connect 23 0 42 1;
#X connect 24 0 43 1;
#X connect 25 0 44 1;
#X connect 26 0 45 1;
#X connect 31 0 19 0;
#X connect 33 0 17 0;
#X connect 33 0 21 0;
#X connect 34 0 33 0;
#X connect 36 0 10 0;
#X connect 41 0 35 0;
#X connect 41 0 53 0;
#X connect 42 0 37 0;
#X connect 42 0 53 0;
#X connect 43 0 38 0;
#X connect 43 0 32 2;
#X connect 43 0 53 0;
#X connect 44 0 39 0;
#X connect 44 0 32 3;
#X connect 44 0 53 0;
#X connect 45 0 40 0;
#X connect 45 0 32 4;
#X connect 45 0 53 0;
#X connect 46 0 12 0;
#X connect 47 0 13 0;
#X connect 48 0 14 0;
#X connect 49 0 15 0;
#X connect 50 0 16 0;
#X connect 51 0 36 0;
#X connect 53 0 52 0;
#X connect 53 0 52 1;
#X connect 54 0 51 0;
#X connect 57 0 58 0;
