#N canvas 988 218 450 300 12;
#N canvas 234 318 875 565 openClose 0;
#X obj 153 29 inlet;
#X obj 153 267 unpack 0 0 0 0 0, f 40;
#N canvas 362 195 631 514 i 0;
#X obj 152 196 inlet;
#X obj 153 375 outlet~;
#X obj 228 290 r rampSpeed;
#N canvas 565 170 450 300 rampsmooth 0;
#X obj 22 25 inlet;
#X obj 25 151 line~, f 8;
#X msg 78 109 900000;
#X obj 80 58 cyclone/prepend set;
#X obj 21 56 t f b;
#X obj 20 199 outlet~;
#X obj 77 22 inlet;
#X connect 0 0 4 0;
#X connect 1 0 5 0;
#X connect 2 0 1 1;
#X connect 3 0 2 0;
#X connect 4 0 1 0;
#X connect 4 1 2 0;
#X connect 6 0 3 0;
#X restore 155 335 pd rampsmooth;
#X connect 0 0 3 0;
#X connect 2 0 3 1;
#X connect 3 0 1 0;
#X restore 153 325 pd i;
#X obj 153 421 outlet~;
#X msg 273 201 1 1 0 0 0;
#X msg 389 200 1 1 1 0 0;
#X msg 518 200 1 1 1 1 0;
#X msg 631 200 1 1 1 1 1;
#X obj 218 421 outlet~;
#X obj 283 421 outlet~;
#X obj 348 421 outlet~;
#X obj 414 421 outlet~;
#N canvas 733 172 685 300 route 1;
#X obj 153 91 int;
#X obj 153 29 inlet;
#X obj 153 224 outlet;
#X obj 231 224 outlet;
#X obj 313 224 outlet;
#X obj 405 224 outlet;
#X obj 482 224 outlet;
#X obj 153 162 route 0 1 2 3 4, f 60;
#X obj 153 127 clip 0 4;
#X obj 154 60 * 4;
#X connect 0 0 8 0;
#X connect 1 0 9 0;
#X connect 7 0 2 0;
#X connect 7 1 3 0;
#X connect 7 2 4 0;
#X connect 7 3 5 0;
#X connect 7 4 6 0;
#X connect 8 0 7 0;
#X connect 9 0 0 0;
#X restore 153 117 pd route;
#X f 50;
#N canvas 963 153 631 514 i 0;
#X obj 152 196 inlet;
#X obj 153 375 outlet~;
#X obj 228 290 r rampSpeed;
#N canvas 565 170 450 300 rampsmooth 0;
#X obj 22 25 inlet;
#X obj 25 151 line~, f 8;
#X msg 78 109 900000;
#X obj 80 58 cyclone/prepend set;
#X obj 21 56 t f b;
#X obj 20 199 outlet~;
#X obj 77 22 inlet;
#X connect 0 0 4 0;
#X connect 1 0 5 0;
#X connect 2 0 1 1;
#X connect 3 0 2 0;
#X connect 4 0 1 0;
#X connect 4 1 2 0;
#X connect 6 0 3 0;
#X restore 155 335 pd rampsmooth;
#X connect 0 0 3 0;
#X connect 2 0 3 1;
#X connect 3 0 1 0;
#X restore 215 323 pd i;
#N canvas 963 153 631 514 i 0;
#X obj 152 196 inlet;
#X obj 153 375 outlet~;
#X obj 228 290 r rampSpeed;
#N canvas 565 170 450 300 rampsmooth 0;
#X obj 22 25 inlet;
#X obj 25 151 line~, f 8;
#X msg 78 109 900000;
#X obj 80 58 cyclone/prepend set;
#X obj 21 56 t f b;
#X obj 20 199 outlet~;
#X obj 77 22 inlet;
#X connect 0 0 4 0;
#X connect 1 0 5 0;
#X connect 2 0 1 1;
#X connect 3 0 2 0;
#X connect 4 0 1 0;
#X connect 4 1 2 0;
#X connect 6 0 3 0;
#X restore 155 335 pd rampsmooth;
#X connect 0 0 3 0;
#X connect 2 0 3 1;
#X connect 3 0 1 0;
#X restore 284 322 pd i;
#N canvas 963 153 631 514 i 0;
#X obj 152 196 inlet;
#X obj 153 375 outlet~;
#X obj 228 290 r rampSpeed;
#N canvas 565 170 450 300 rampsmooth 0;
#X obj 22 25 inlet;
#X obj 25 151 line~, f 8;
#X msg 78 109 900000;
#X obj 80 58 cyclone/prepend set;
#X obj 21 56 t f b;
#X obj 20 199 outlet~;
#X obj 77 22 inlet;
#X connect 0 0 4 0;
#X connect 1 0 5 0;
#X connect 2 0 1 1;
#X connect 3 0 2 0;
#X connect 4 0 1 0;
#X connect 4 1 2 0;
#X connect 6 0 3 0;
#X restore 155 335 pd rampsmooth;
#X connect 0 0 3 0;
#X connect 2 0 3 1;
#X connect 3 0 1 0;
#X restore 346 322 pd i;
#N canvas 963 153 631 514 i 0;
#X obj 152 196 inlet;
#X obj 153 375 outlet~;
#X obj 228 290 r rampSpeed;
#N canvas 565 170 450 300 rampsmooth 0;
#X obj 22 25 inlet;
#X obj 25 151 line~, f 8;
#X msg 78 109 900000;
#X obj 80 58 cyclone/prepend set;
#X obj 21 56 t f b;
#X obj 20 199 outlet~;
#X obj 77 22 inlet;
#X connect 0 0 4 0;
#X connect 1 0 5 0;
#X connect 2 0 1 1;
#X connect 3 0 2 0;
#X connect 4 0 1 0;
#X connect 4 1 2 0;
#X connect 6 0 3 0;
#X restore 155 335 pd rampsmooth;
#X connect 0 0 3 0;
#X connect 2 0 3 1;
#X connect 3 0 1 0;
#X restore 421 324 pd i;
#X msg 153 201 1 0.1 0 0 0;
#X connect 0 0 12 0;
#X connect 1 0 2 0;
#X connect 1 1 13 0;
#X connect 1 2 14 0;
#X connect 1 3 15 0;
#X connect 1 4 16 0;
#X connect 2 0 3 0;
#X connect 4 0 1 0;
#X connect 5 0 1 0;
#X connect 6 0 1 0;
#X connect 7 0 1 0;
#X connect 12 0 17 0;
#X connect 12 1 4 0;
#X connect 12 2 5 0;
#X connect 12 3 6 0;
#X connect 12 4 7 0;
#X connect 13 0 8 0;
#X connect 14 0 9 0;
#X connect 15 0 10 0;
#X connect 16 0 11 0;
#X connect 17 0 1 0;
#X restore 85 103 pd openClose;
#N canvas 0 46 1800 1033 osc 0;
#X obj 76 655 outlet~;
#X obj 202 655 outlet~;
#X obj 345 655 outlet~;
#X obj 477 655 outlet~;
#X obj 597 655 outlet~;
#X obj 76 16 inlet;
#X obj 159 16 r rampSpeed;
#N canvas 16 138 1184 607 route 0;
#X obj 153 91 int;
#X obj 153 289 outlet;
#X msg 153 207 2 3 4 5;
#X msg 400 214 2.2 3.3 4.4 5.5;
#X msg 523 214 2.5 3.6 4.7 5.8;
#X msg 648 213 1.5 3.4 4.8 7.1;
#X msg 776 213 1.1 2.8 3.2 4.5 6.6;
#X obj 156 55 r breathVal;
#X obj 153 127 clip 0 5;
#X msg 277 214 2 3.1 4.1 5.1;
#X obj 153 162 route 0 1 2 3 4 5, f 107;
#X connect 0 0 8 0;
#X connect 2 0 1 0;
#X connect 3 0 1 0;
#X connect 4 0 1 0;
#X connect 5 0 1 0;
#X connect 6 0 1 0;
#X connect 7 0 0 0;
#X connect 8 0 10 0;
#X connect 9 0 1 0;
#X connect 10 0 2 0;
#X connect 10 1 9 0;
#X connect 10 2 3 0;
#X connect 10 3 4 0;
#X connect 10 4 5 0;
#X connect 10 5 6 0;
#X restore 311 22 pd route;
#X f 31;
#X obj 313 194 unpack f f f f, f 43;
#X obj 202 419 *~;
#X obj 345 419 *~;
#X obj 477 419 *~;
#X obj 597 419 *~;
#N canvas 0 46 1800 1033 env 0;
#X obj 63 521 function 200 100 empty empty 0 1 228 228 228 55 55 55 0 0 0 0 0 1749.12 1 5379.35 1 1677.18 0 14885.9 0;
#X obj 63 739 else/envgen~;
#X msg 63 439 duration \$1;
#X obj 74 338 random 100;
#X obj 74 300 bng 25 250 50 0 empty empty empty 17 7 0 10 #e4e4e4 #4c4c4c #343434;
#X obj 74 266 pipe 1;
#X obj 63 391 +;
#X obj 76 16 inlet;
#X obj 52 873 outlet~;
#X obj 133 478 r setEnv;
#X obj 143 776 sel 0;
#X obj 15 819 bng 25 250 50 0 empty empty empty 17 7 0 10 #e4e4e4 #4c4c4c #343434;
#X obj 17 342 * 0.5;
#X obj 131 16 r minMax;
#X obj 131 58 unpack f f;
#X floatatom 223 407 22 0 0 0 - - - 0;
#X obj 58 776 lop~ 8;
#X obj 73 196 clip 100 100000;
#X obj 76 118 cyclone/scale 0 2 4500 10;
#X connect 0 0 1 0;
#X connect 1 0 16 0;
#X connect 1 1 10 0;
#X connect 2 0 0 0;
#X connect 3 0 6 1;
#X connect 4 0 3 0;
#X connect 4 0 12 0;
#X connect 5 0 4 0;
#X connect 6 0 2 0;
#X connect 6 0 15 0;
#X connect 7 0 18 0;
#X connect 9 0 0 0;
#X connect 10 0 11 0;
#X connect 11 0 4 0;
#X connect 11 0 0 0;
#X connect 12 0 6 0;
#X connect 13 0 14 0;
#X connect 14 0 18 3;
#X connect 14 1 18 4;
#X connect 16 0 8 0;
#X connect 17 0 5 0;
#X connect 17 0 3 1;
#X connect 17 0 12 0;
#X connect 18 0 17 0;
#X restore 715 472 pd env;
#X obj 76 557 *~;
#X obj 202 557 *~;
#X obj 345 557 *~;
#X obj 477 557 *~;
#X obj 597 557 *~;
#X obj 186 234 inlet;
#X obj 223 284 * 2;
#X obj 76 323 cyclone/scale~ 0 10 150 300;
#X obj 77 472 noise_reson;
#X obj 202 473 noise_reson;
#X obj 345 474 noise_reson;
#X obj 476 473 noise_reson;
#X obj 597 473 noise_reson;
#X obj 710 192 float;
#N canvas 331 164 450 300 rampsmooth 0;
#X obj 22 25 inlet;
#X obj 25 151 line~, f 8;
#X msg 78 109 900000;
#X obj 80 58 cyclone/prepend set;
#X obj 21 56 t f b;
#X obj 20 199 outlet~;
#X obj 77 22 inlet;
#X connect 0 0 4 0;
#X connect 1 0 5 0;
#X connect 2 0 1 1;
#X connect 3 0 2 0;
#X connect 4 0 1 0;
#X connect 4 1 2 0;
#X connect 6 0 3 0;
#X restore 76 87 pd rampsmooth;
#N canvas 536 153 631 514 i 0;
#X obj 152 196 inlet;
#X obj 153 375 outlet~;
#X obj 228 290 r rampSpeed;
#N canvas 565 170 450 300 rampsmooth 0;
#X obj 22 25 inlet;
#X obj 25 151 line~, f 8;
#X msg 78 109 900000;
#X obj 80 58 cyclone/prepend set;
#X obj 21 56 t f b;
#X obj 20 199 outlet~;
#X obj 77 22 inlet;
#X connect 0 0 4 0;
#X connect 1 0 5 0;
#X connect 2 0 1 1;
#X connect 3 0 2 0;
#X connect 4 0 1 0;
#X connect 4 1 2 0;
#X connect 6 0 3 0;
#X restore 155 335 pd rampsmooth;
#X connect 0 0 3 0;
#X connect 2 0 3 1;
#X connect 3 0 1 0;
#X restore 314 322 pd i;
#N canvas 963 153 631 514 i 0;
#X obj 152 196 inlet;
#X obj 153 375 outlet~;
#X obj 228 290 r rampSpeed;
#N canvas 565 170 450 300 rampsmooth 0;
#X obj 22 25 inlet;
#X obj 25 151 line~, f 8;
#X msg 78 109 900000;
#X obj 80 58 cyclone/prepend set;
#X obj 21 56 t f b;
#X obj 20 199 outlet~;
#X obj 77 22 inlet;
#X connect 0 0 4 0;
#X connect 1 0 5 0;
#X connect 2 0 1 1;
#X connect 3 0 2 0;
#X connect 4 0 1 0;
#X connect 4 1 2 0;
#X connect 6 0 3 0;
#X restore 155 335 pd rampsmooth;
#X connect 0 0 3 0;
#X connect 2 0 3 1;
#X connect 3 0 1 0;
#X restore 364 274 pd i;
#N canvas 963 153 631 514 i 0;
#X obj 152 196 inlet;
#X obj 153 375 outlet~;
#X obj 228 290 r rampSpeed;
#N canvas 565 170 450 300 rampsmooth 0;
#X obj 22 25 inlet;
#X obj 25 151 line~, f 8;
#X msg 78 109 900000;
#X obj 80 58 cyclone/prepend set;
#X obj 21 56 t f b;
#X obj 20 199 outlet~;
#X obj 77 22 inlet;
#X connect 0 0 4 0;
#X connect 1 0 5 0;
#X connect 2 0 1 1;
#X connect 3 0 2 0;
#X connect 4 0 1 0;
#X connect 4 1 2 0;
#X connect 6 0 3 0;
#X restore 155 335 pd rampsmooth;
#X connect 0 0 3 0;
#X connect 2 0 3 1;
#X connect 3 0 1 0;
#X restore 494 276 pd i;
#N canvas 963 153 631 514 i 0;
#X obj 152 196 inlet;
#X obj 153 375 outlet~;
#X obj 228 290 r rampSpeed;
#N canvas 565 170 450 300 rampsmooth 0;
#X obj 22 25 inlet;
#X obj 25 151 line~, f 8;
#X msg 78 109 900000;
#X obj 80 58 cyclone/prepend set;
#X obj 21 56 t f b;
#X obj 20 199 outlet~;
#X obj 77 22 inlet;
#X connect 0 0 4 0;
#X connect 1 0 5 0;
#X connect 2 0 1 1;
#X connect 3 0 2 0;
#X connect 4 0 1 0;
#X connect 4 1 2 0;
#X connect 6 0 3 0;
#X restore 155 335 pd rampsmooth;
#X connect 0 0 3 0;
#X connect 2 0 3 1;
#X connect 3 0 1 0;
#X restore 614 274 pd i;
#N canvas 0 46 1800 1033 env 0;
#X obj 63 521 function 200 100 empty empty 0 1 228 228 228 55 55 55 0 0 0 0 0 1063.69 1 3271.35 1 1019.95 0 9052.57 0;
#X obj 63 739 else/envgen~;
#X msg 63 439 duration \$1;
#X obj 74 338 random 100;
#X obj 74 300 bng 25 250 50 0 empty empty empty 17 7 0 10 #e4e4e4 #4c4c4c #343434;
#X obj 74 266 pipe 1;
#X obj 63 391 +;
#X obj 76 16 inlet;
#X obj 52 873 outlet~;
#X obj 133 478 r setEnv;
#X obj 143 776 sel 0;
#X obj 15 819 bng 25 250 50 0 empty empty empty 17 7 0 10 #e4e4e4 #4c4c4c #343434;
#X obj 17 342 * 0.5;
#X obj 131 16 r minMax;
#X obj 131 58 unpack f f;
#X floatatom 223 407 22 0 0 0 - - - 0;
#X obj 58 776 lop~ 8;
#X obj 73 196 clip 100 100000;
#X obj 76 118 cyclone/scale 0 2 4500 10;
#X connect 0 0 1 0;
#X connect 1 0 16 0;
#X connect 1 1 10 0;
#X connect 2 0 0 0;
#X connect 3 0 6 1;
#X connect 4 0 3 0;
#X connect 4 0 12 0;
#X connect 5 0 4 0;
#X connect 6 0 2 0;
#X connect 6 0 15 0;
#X connect 7 0 18 0;
#X connect 9 0 0 0;
#X connect 10 0 11 0;
#X connect 11 0 4 0;
#X connect 11 0 0 0;
#X connect 12 0 6 0;
#X connect 13 0 14 0;
#X connect 14 0 18 3;
#X connect 14 1 18 4;
#X connect 16 0 8 0;
#X connect 17 0 5 0;
#X connect 17 0 3 1;
#X connect 17 0 12 0;
#X connect 18 0 17 0;
#X restore 789 472 pd env;
#N canvas 0 46 1800 1033 env 0;
#X obj 63 521 function 200 100 empty empty 0 1 228 228 228 55 55 55 0 0 0 0 0 2544.77 1 7826.37 1 2440.1 0 21657.3 0;
#X obj 63 739 else/envgen~;
#X msg 63 439 duration \$1;
#X obj 74 338 random 100;
#X obj 74 300 bng 25 250 50 0 empty empty empty 17 7 0 10 #e4e4e4 #4c4c4c #343434;
#X obj 74 266 pipe 1;
#X obj 63 391 +;
#X obj 76 16 inlet;
#X obj 52 873 outlet~;
#X obj 133 478 r setEnv;
#X obj 143 776 sel 0;
#X obj 15 819 bng 25 250 50 0 empty empty empty 17 7 0 10 #e4e4e4 #4c4c4c #343434;
#X obj 17 342 * 0.5;
#X obj 131 16 r minMax;
#X obj 131 58 unpack f f;
#X floatatom 223 407 22 0 0 0 - - - 0;
#X obj 58 776 lop~ 8;
#X obj 73 196 clip 100 100000;
#X obj 76 118 cyclone/scale 0 2 4500 10;
#X connect 0 0 1 0;
#X connect 1 0 16 0;
#X connect 1 1 10 0;
#X connect 2 0 0 0;
#X connect 3 0 6 1;
#X connect 4 0 3 0;
#X connect 4 0 12 0;
#X connect 5 0 4 0;
#X connect 6 0 2 0;
#X connect 6 0 15 0;
#X connect 7 0 18 0;
#X connect 9 0 0 0;
#X connect 10 0 11 0;
#X connect 11 0 4 0;
#X connect 11 0 0 0;
#X connect 12 0 6 0;
#X connect 13 0 14 0;
#X connect 14 0 18 3;
#X connect 14 1 18 4;
#X connect 16 0 8 0;
#X connect 17 0 5 0;
#X connect 17 0 3 1;
#X connect 17 0 12 0;
#X connect 18 0 17 0;
#X restore 853 470 pd env;
#N canvas 0 46 1800 1033 env 0;
#X obj 63 521 function 200 100 empty empty 0 1 228 228 228 55 55 55 0 0 0 0 0 1708.29 1 5253.79 1 1638.05 0 14538.4 0;
#X obj 63 739 else/envgen~;
#X msg 63 439 duration \$1;
#X obj 74 338 random 100;
#X obj 74 300 bng 25 250 50 0 empty empty empty 17 7 0 10 #e4e4e4 #4c4c4c #343434;
#X obj 74 266 pipe 1;
#X obj 63 391 +;
#X obj 76 16 inlet;
#X obj 52 873 outlet~;
#X obj 133 478 r setEnv;
#X obj 143 776 sel 0;
#X obj 15 819 bng 25 250 50 0 empty empty empty 17 7 0 10 #e4e4e4 #4c4c4c #343434;
#X obj 17 342 * 0.5;
#X obj 131 16 r minMax;
#X obj 131 58 unpack f f;
#X floatatom 223 407 22 0 0 0 - - - 0;
#X obj 58 776 lop~ 8;
#X obj 73 196 clip 100 100000;
#X obj 76 118 cyclone/scale 0 2 4500 10;
#X connect 0 0 1 0;
#X connect 1 0 16 0;
#X connect 1 1 10 0;
#X connect 2 0 0 0;
#X connect 3 0 6 1;
#X connect 4 0 3 0;
#X connect 4 0 12 0;
#X connect 5 0 4 0;
#X connect 6 0 2 0;
#X connect 6 0 15 0;
#X connect 7 0 18 0;
#X connect 9 0 0 0;
#X connect 10 0 11 0;
#X connect 11 0 4 0;
#X connect 11 0 0 0;
#X connect 12 0 6 0;
#X connect 13 0 14 0;
#X connect 14 0 18 3;
#X connect 14 1 18 4;
#X connect 16 0 8 0;
#X connect 17 0 5 0;
#X connect 17 0 3 1;
#X connect 17 0 12 0;
#X connect 18 0 17 0;
#X restore 919 473 pd env;
#N canvas 0 46 1800 1033 env 0;
#X obj 63 521 function 200 100 empty empty 0 1 228 228 228 55 55 55 0 0 0 0 0 1885.11 1 5797.6 1 1807.61 0 16043.2 0;
#X obj 63 739 else/envgen~;
#X msg 63 439 duration \$1;
#X obj 74 338 random 100;
#X obj 74 300 bng 25 250 50 0 empty empty empty 17 7 0 10 #e4e4e4 #4c4c4c #343434;
#X obj 74 266 pipe 1;
#X obj 63 391 +;
#X obj 76 16 inlet;
#X obj 52 873 outlet~;
#X obj 133 478 r setEnv;
#X obj 143 776 sel 0;
#X obj 15 819 bng 25 250 50 0 empty empty empty 17 7 0 10 #e4e4e4 #4c4c4c #343434;
#X obj 17 342 * 0.5;
#X obj 131 16 r minMax;
#X obj 131 58 unpack f f;
#X floatatom 223 407 22 0 0 0 - - - 0;
#X obj 58 776 lop~ 8;
#X obj 73 196 clip 100 100000;
#X obj 76 118 cyclone/scale 0 2 4500 10;
#X connect 0 0 1 0;
#X connect 1 0 16 0;
#X connect 1 1 10 0;
#X connect 2 0 0 0;
#X connect 3 0 6 1;
#X connect 4 0 3 0;
#X connect 4 0 12 0;
#X connect 5 0 4 0;
#X connect 6 0 2 0;
#X connect 6 0 15 0;
#X connect 7 0 18 0;
#X connect 9 0 0 0;
#X connect 10 0 11 0;
#X connect 11 0 4 0;
#X connect 11 0 0 0;
#X connect 12 0 6 0;
#X connect 13 0 14 0;
#X connect 14 0 18 3;
#X connect 14 1 18 4;
#X connect 16 0 8 0;
#X connect 17 0 5 0;
#X connect 17 0 3 1;
#X connect 17 0 12 0;
#X connect 18 0 17 0;
#X restore 974 477 pd env;
#N canvas 331 164 450 300 rampsmooth 0;
#X obj 22 25 inlet;
#X msg 78 109 900000;
#X obj 80 58 cyclone/prepend set;
#X obj 21 56 t f b;
#X obj 77 22 inlet;
#X obj 25 151 line, f 8;
#X obj 20 199 outlet;
#X connect 0 0 3 0;
#X connect 1 0 5 1;
#X connect 2 0 1 0;
#X connect 3 0 5 0;
#X connect 3 1 1 0;
#X connect 4 0 2 0;
#X connect 5 0 6 0;
#X restore 708 138 pd rampsmooth;
#X connect 5 0 28 0;
#X connect 5 0 37 0;
#X connect 6 0 28 1;
#X connect 7 0 8 0;
#X connect 8 0 29 0;
#X connect 8 1 30 0;
#X connect 8 2 31 0;
#X connect 8 3 32 0;
#X connect 9 0 23 0;
#X connect 10 0 24 0;
#X connect 11 0 25 0;
#X connect 12 0 26 0;
#X connect 13 0 14 1;
#X connect 14 0 0 0;
#X connect 15 0 1 0;
#X connect 16 0 2 0;
#X connect 17 0 3 0;
#X connect 18 0 4 0;
#X connect 19 0 20 0;
#X connect 19 0 21 3;
#X connect 20 0 21 4;
#X connect 21 0 9 0;
#X connect 21 0 10 0;
#X connect 21 0 11 0;
#X connect 21 0 12 0;
#X connect 21 0 22 0;
#X connect 22 0 14 0;
#X connect 23 0 15 0;
#X connect 24 0 16 0;
#X connect 25 0 17 0;
#X connect 26 0 18 0;
#X connect 27 0 13 0;
#X connect 27 0 33 0;
#X connect 27 0 34 0;
#X connect 27 0 35 0;
#X connect 27 0 36 0;
#X connect 28 0 21 0;
#X connect 29 0 9 1;
#X connect 30 0 10 1;
#X connect 31 0 11 1;
#X connect 32 0 12 1;
#X connect 33 0 15 1;
#X connect 34 0 16 1;
#X connect 35 0 17 1;
#X connect 36 0 18 1;
#X connect 37 0 27 0;
#X restore 213 103 pd osc;
#N canvas 971 382 799 639 sum 1;
#X obj 227 255 *~;
#X obj 227 147 inlet~;
#X obj 238 188 inlet~;
#X obj 124 468 outlet~;
#X obj 318 255 *~;
#X obj 318 147 inlet~;
#X obj 329 188 inlet~;
#X obj 417 255 *~;
#X obj 417 147 inlet~;
#X obj 428 188 inlet~;
#X obj 506 255 *~;
#X obj 506 147 inlet~;
#X obj 517 188 inlet~;
#X obj 602 255 *~;
#X obj 602 147 inlet~;
#X obj 613 188 inlet~;
#X obj 124 188 +~;
#X obj 124 370 *~;
#X obj 88 251 cyclone/rdiv~ 1;
#X connect 0 0 17 1;
#X connect 1 0 0 0;
#X connect 1 0 16 0;
#X connect 2 0 0 1;
#X connect 4 0 17 1;
#X connect 5 0 4 0;
#X connect 5 0 16 0;
#X connect 6 0 4 1;
#X connect 7 0 17 1;
#X connect 8 0 7 0;
#X connect 8 0 16 0;
#X connect 9 0 7 1;
#X connect 10 0 17 1;
#X connect 11 0 10 0;
#X connect 12 0 10 1;
#X connect 13 0 17 1;
#X connect 14 0 13 0;
#X connect 14 0 16 0;
#X connect 15 0 13 1;
#X connect 16 0 18 0;
#X connect 17 0 3 0;
#X connect 18 0 17 0;
#X restore 85 179 pd sum;
#X f 31;
#X obj 85 52 inlet;
#X obj 248 50 inlet;
#X obj 85 257 outlet~;
#X obj 83 210 clip~ -1 1;
#X connect 0 0 2 0;
#X connect 0 1 2 2;
#X connect 0 2 2 4;
#X connect 0 3 2 6;
#X connect 0 4 2 8;
#X connect 1 0 2 1;
#X connect 1 1 2 3;
#X connect 1 2 2 5;
#X connect 1 3 2 7;
#X connect 1 4 2 9;
#X connect 2 0 6 0;
#X connect 3 0 0 0;
#X connect 3 0 1 0;
#X connect 4 0 1 1;
#X connect 6 0 5 0;
