#N canvas 0 44 450 300 12;
#N canvas 733 172 450 300 openClose 0;
#X obj 153 29 inlet;
#X msg 153 201 1 0 0 0 0;
#X obj 153 251 unpack 0 0 0 0 0, f 40;
#N canvas 733 172 450 300 i 0;
#X obj 153 290 sig~;
#X obj 153 251 inlet;
#X obj 153 375 outlet~;
#X obj 153 333 rampsmooth~ 44100 44100;
#X obj 228 290 r rampSpeed;
#X connect 0 0 3 0;
#X connect 1 0 0 0;
#X connect 3 0 2 0;
#X connect 4 0 3 1;
#X connect 4 0 3 2;
#X restore 153 325 pd i;
#X obj 153 421 outlet~;
#X msg 234 201 1 1 0 0 0;
#X msg 315 201 1 1 1 0 0;
#X msg 396 201 1 1 1 1 0;
#X msg 478 201 1 1 1 1 1;
#X obj 218 421 outlet~;
#X obj 283 421 outlet~;
#X obj 348 421 outlet~;
#X obj 414 421 outlet~;
#N canvas 733 172 450 300 route 0;
#X obj 153 91 int;
#X obj 153 29 inlet;
#X obj 153 224 outlet;
#X obj 231 224 outlet;
#X obj 313 224 outlet;
#X obj 405 224 outlet;
#X obj 482 224 outlet;
#X obj 153 162 route 0 1 2 3 4, f 60;
#X obj 153 127 clip 0 4;
#X connect 0 0 8 0;
#X connect 1 0 0 0;
#X connect 7 0 2 0;
#X connect 7 1 3 0;
#X connect 7 2 4 0;
#X connect 7 3 5 0;
#X connect 7 4 6 0;
#X connect 8 0 7 0;
#X restore 153 117 pd route;
#X f 50;
#N canvas 733 172 450 300 i 0;
#X obj 153 290 sig~;
#X obj 153 251 inlet;
#X obj 153 375 outlet~;
#X obj 153 333 rampsmooth~ 44100 44100;
#X obj 228 290 r rampSpeed;
#X connect 0 0 3 0;
#X connect 1 0 0 0;
#X connect 3 0 2 0;
#X connect 4 0 3 1;
#X connect 4 0 3 2;
#X restore 218 325 pd i;
#N canvas 733 172 450 300 i 0;
#X obj 153 290 sig~;
#X obj 153 251 inlet;
#X obj 153 375 outlet~;
#X obj 153 333 rampsmooth~ 44100 44100;
#X obj 228 290 r rampSpeed;
#X connect 0 0 3 0;
#X connect 1 0 0 0;
#X connect 3 0 2 0;
#X connect 4 0 3 1;
#X connect 4 0 3 2;
#X restore 283 325 pd i;
#N canvas 733 172 450 300 i 0;
#X obj 153 290 sig~;
#X obj 153 251 inlet;
#X obj 153 375 outlet~;
#X obj 153 333 rampsmooth~ 44100 44100;
#X obj 228 290 r rampSpeed;
#X connect 0 0 3 0;
#X connect 1 0 0 0;
#X connect 3 0 2 0;
#X connect 4 0 3 1;
#X connect 4 0 3 2;
#X restore 348 325 pd i;
#N canvas 733 172 450 300 i 0;
#X obj 153 290 sig~;
#X obj 153 251 inlet;
#X obj 153 375 outlet~;
#X obj 153 333 rampsmooth~ 44100 44100;
#X obj 228 290 r rampSpeed;
#X connect 0 0 3 0;
#X connect 1 0 0 0;
#X connect 3 0 2 0;
#X connect 4 0 3 1;
#X connect 4 0 3 2;
#X restore 414 325 pd i;
#X connect 0 0 13 0;
#X connect 1 0 2 0;
#X connect 2 0 3 0;
#X connect 2 1 14 0;
#X connect 2 2 15 0;
#X connect 2 3 16 0;
#X connect 2 4 17 0;
#X connect 3 0 4 0;
#X connect 5 0 2 0;
#X connect 6 0 2 0;
#X connect 7 0 2 0;
#X connect 8 0 2 0;
#X connect 13 0 1 0;
#X connect 13 1 5 0;
#X connect 13 2 6 0;
#X connect 13 3 7 0;
#X connect 13 4 8 0;
#X connect 14 0 9 0;
#X connect 15 0 10 0;
#X connect 16 0 11 0;
#X connect 17 0 12 0;
#X restore 85 103 pd openClose;
#N canvas 10 78 1800 1033 osc 0;
#X obj 76 655 outlet~;
#X obj 202 655 outlet~;
#X obj 345 655 outlet~;
#X obj 477 655 outlet~;
#X obj 597 655 outlet~;
#X obj 76 16 inlet;
#X obj 76 113 sig~;
#X obj 151 113 r rampSpeed;
#N canvas 733 172 450 300 i 0;
#X obj 153 290 sig~;
#X obj 153 251 inlet;
#X obj 153 375 outlet~;
#X obj 228 290 r rampSpeed;
#X obj 153 333 cyclone/rampsmooth~ 44100 44100;
#X connect 0 0 4 0;
#X connect 1 0 0 0;
#X connect 3 0 4 1;
#X connect 3 0 4 2;
#X connect 4 0 2 0;
#X restore 313 268 pd i;
#N canvas 733 172 1184 607 route 0;
#X obj 153 91 int;
#X obj 153 29 inlet;
#X obj 153 352 outlet;
#X obj 153 127 clip 0 7;
#X obj 153 162 route 0 1 2 3 4 5 6 7, f 93;
#X msg 153 270 2 3 4 5;
#X msg 385 270 2.2 3.3 4.4 5.5;
#X msg 506 270 2.3 3.4 4.5 5.6;
#X msg 628 270 2.5 3.6 4.7 5.8;
#X msg 231 270 2.1 3.2 4.3 5.4;
#X msg 752 270 2.6 3.1 5.8 4.9;
#X msg 876 270 1.5 3.4 4.8 7.1;
#X msg 1005 270 1.1 2.8 3.2 4.5 6.6;
#X connect 0 0 3 0;
#X connect 1 0 0 0;
#X connect 3 0 4 0;
#X connect 4 0 5 0;
#X connect 4 1 9 0;
#X connect 4 2 6 0;
#X connect 4 3 7 0;
#X connect 4 4 8 0;
#X connect 4 5 10 0;
#X connect 4 6 11 0;
#X connect 4 7 12 0;
#X connect 5 0 2 0;
#X connect 6 0 2 0;
#X connect 7 0 2 0;
#X connect 8 0 2 0;
#X connect 9 0 2 0;
#X connect 10 0 2 0;
#X connect 11 0 2 0;
#X connect 12 0 2 0;
#X restore 313 78 pd route;
#X f 31;
#N canvas 733 172 450 300 i 0;
#X obj 153 290 sig~;
#X obj 153 251 inlet;
#X obj 153 375 outlet~;
#X obj 228 290 r rampSpeed;
#X obj 153 333 cyclone/rampsmooth~ 44100 44100;
#X connect 0 0 4 0;
#X connect 1 0 0 0;
#X connect 3 0 4 1;
#X connect 3 0 4 2;
#X connect 4 0 2 0;
#X restore 378 268 pd i;
#N canvas 733 172 450 300 i 0;
#X obj 153 290 sig~;
#X obj 153 251 inlet;
#X obj 153 375 outlet~;
#X obj 228 290 r rampSpeed;
#X obj 153 333 cyclone/rampsmooth~ 44100 44100;
#X connect 0 0 4 0;
#X connect 1 0 0 0;
#X connect 3 0 4 1;
#X connect 3 0 4 2;
#X connect 4 0 2 0;
#X restore 443 268 pd i;
#N canvas 733 172 450 300 i 0;
#X obj 153 290 sig~;
#X obj 153 251 inlet;
#X obj 153 375 outlet~;
#X obj 228 290 r rampSpeed;
#X obj 153 333 cyclone/rampsmooth~ 44100 44100;
#X connect 0 0 4 0;
#X connect 1 0 0 0;
#X connect 3 0 4 1;
#X connect 3 0 4 2;
#X connect 4 0 2 0;
#X restore 508 268 pd i;
#X obj 313 194 unpack f f f f, f 31;
#X obj 202 389 *~;
#X obj 345 389 *~;
#X obj 477 389 *~;
#X obj 597 389 *~;
#N canvas 30 78 1800 1033 env 0;
#X obj 76 419 function 200 100 empty empty 0 1 228 228 228 55 55 55
0 0 0 0 0 1000 0;
#X obj 76 537 else/envgen~;
#X msg 76 337 duration \$1;
#X obj 87 236 random 100;
#X obj 87 198 bng 25 250 50 0 empty empty empty 17 7 0 10 -237178 -79060
-54094;
#X obj 87 164 pipe 1;
#X obj 76 289 +;
#X obj 76 16 inlet;
#X obj 76 638 outlet~;
#X obj 146 376 r setEnv;
#X obj 253 585 sel 0;
#X obj 253 633 bng 25 250 50 0 empty empty empty 17 7 0 10 -237178
-79060 -54094;
#X obj 26 203 * 0.5;
#X obj 131 16 r minMax;
#X obj 131 58 unpack f f;
#X obj 76 118 cyclone/scale 0 9 4500 10;
#X obj 76 585 cyclone/rampsmooth~ 441 441;
#X connect 0 0 1 0;
#X connect 1 0 16 0;
#X connect 1 1 10 0;
#X connect 2 0 0 0;
#X connect 3 0 6 1;
#X connect 4 0 3 0;
#X connect 4 0 12 0;
#X connect 5 0 4 0;
#X connect 6 0 2 0;
#X connect 7 0 15 0;
#X connect 9 0 0 0;
#X connect 10 0 11 0;
#X connect 11 0 4 0;
#X connect 11 0 0 0;
#X connect 12 0 6 0;
#X connect 13 0 14 0;
#X connect 14 0 15 3;
#X connect 14 1 15 4;
#X connect 15 0 3 1;
#X connect 15 0 5 0;
#X connect 15 0 12 0;
#X connect 16 0 8 0;
#X restore 715 472 pd env;
#X obj 76 557 *~;
#X obj 202 557 *~;
#X obj 345 557 *~;
#X obj 477 557 *~;
#X obj 597 557 *~;
#X obj 139 240 inlet;
#X obj 160 283 * 2;
#N canvas 10 78 1800 1033 env 0;
#X obj 76 419 function 200 100 empty empty 0 1 228 228 228 55 55 55
0 0 0 0 0 1000 0;
#X obj 76 537 else/envgen~;
#X msg 76 337 duration \$1;
#X obj 87 236 random 100;
#X obj 87 198 bng 25 250 50 0 empty empty empty 17 7 0 10 -237178 -79060
-54094;
#X obj 87 164 pipe 1;
#X obj 76 289 +;
#X obj 76 16 inlet;
#X obj 76 638 outlet~;
#X obj 146 376 r setEnv;
#X obj 253 585 sel 0;
#X obj 253 633 bng 25 250 50 0 empty empty empty 17 7 0 10 -237178
-79060 -54094;
#X obj 26 203 * 0.5;
#X obj 131 16 r minMax;
#X obj 131 58 unpack f f;
#X obj 78 120 cyclone/scale 0 9 4500 10;
#X obj 76 585 cyclone/rampsmooth~ 441 441;
#X connect 0 0 1 0;
#X connect 1 0 16 0;
#X connect 1 1 10 0;
#X connect 2 0 0 0;
#X connect 3 0 6 1;
#X connect 4 0 3 0;
#X connect 4 0 12 0;
#X connect 5 0 4 0;
#X connect 6 0 2 0;
#X connect 7 0 15 0;
#X connect 9 0 0 0;
#X connect 10 0 11 0;
#X connect 11 0 4 0;
#X connect 11 0 0 0;
#X connect 12 0 6 0;
#X connect 13 0 14 0;
#X connect 14 0 15 3;
#X connect 14 1 15 4;
#X connect 15 0 3 1;
#X connect 15 0 5 0;
#X connect 15 0 12 0;
#X connect 16 0 8 0;
#X restore 789 472 pd env;
#N canvas 10 78 1800 1033 env 0;
#X obj 76 419 function 200 100 empty empty 0 1 228 228 228 55 55 55
0 0 0 0 0 1000 0;
#X obj 76 537 else/envgen~;
#X msg 76 337 duration \$1;
#X obj 87 236 random 100;
#X obj 87 198 bng 25 250 50 0 empty empty empty 17 7 0 10 -237178 -79060
-54094;
#X obj 87 164 pipe 1;
#X obj 76 289 +;
#X obj 76 16 inlet;
#X obj 76 638 outlet~;
#X obj 146 376 r setEnv;
#X obj 253 585 sel 0;
#X obj 253 633 bng 25 250 50 0 empty empty empty 17 7 0 10 -237178
-79060 -54094;
#X obj 26 203 * 0.5;
#X obj 131 16 r minMax;
#X obj 131 58 unpack f f;
#X obj 76 118 cyclone/scale 0 9 4500 10;
#X obj 76 585 cyclone/rampsmooth~ 441 441;
#X connect 0 0 1 0;
#X connect 1 0 16 0;
#X connect 1 1 10 0;
#X connect 2 0 0 0;
#X connect 3 0 6 1;
#X connect 4 0 3 0;
#X connect 4 0 12 0;
#X connect 5 0 4 0;
#X connect 6 0 2 0;
#X connect 7 0 15 0;
#X connect 9 0 0 0;
#X connect 10 0 11 0;
#X connect 11 0 4 0;
#X connect 11 0 0 0;
#X connect 12 0 6 0;
#X connect 13 0 14 0;
#X connect 14 0 15 3;
#X connect 14 1 15 4;
#X connect 15 0 3 1;
#X connect 15 0 5 0;
#X connect 15 0 12 0;
#X connect 16 0 8 0;
#X restore 864 472 pd env;
#N canvas 10 78 1800 1033 env 0;
#X obj 76 419 function 200 100 empty empty 0 1 228 228 228 55 55 55
0 0 0 0 0 1000 0;
#X obj 76 537 else/envgen~;
#X msg 76 337 duration \$1;
#X obj 87 236 random 100;
#X obj 87 198 bng 25 250 50 0 empty empty empty 17 7 0 10 -237178 -79060
-54094;
#X obj 87 164 pipe 1;
#X obj 76 289 +;
#X obj 76 16 inlet;
#X obj 76 638 outlet~;
#X obj 146 376 r setEnv;
#X obj 253 585 sel 0;
#X obj 253 633 bng 25 250 50 0 empty empty empty 17 7 0 10 -237178
-79060 -54094;
#X obj 26 203 * 0.5;
#X obj 131 16 r minMax;
#X obj 131 58 unpack f f;
#X obj 76 118 cyclone/scale 0 9 4500 10;
#X obj 76 585 cyclone/rampsmooth~ 441 441;
#X connect 0 0 1 0;
#X connect 1 0 16 0;
#X connect 1 1 10 0;
#X connect 2 0 0 0;
#X connect 3 0 6 1;
#X connect 4 0 3 0;
#X connect 4 0 12 0;
#X connect 5 0 4 0;
#X connect 6 0 2 0;
#X connect 7 0 15 0;
#X connect 9 0 0 0;
#X connect 10 0 11 0;
#X connect 11 0 4 0;
#X connect 11 0 0 0;
#X connect 12 0 6 0;
#X connect 13 0 14 0;
#X connect 14 0 15 3;
#X connect 14 1 15 4;
#X connect 15 0 3 1;
#X connect 15 0 5 0;
#X connect 15 0 12 0;
#X connect 16 0 8 0;
#X restore 940 472 pd env;
#N canvas 10 78 1800 1033 env 0;
#X obj 76 419 function 200 100 empty empty 0 1 228 228 228 55 55 55
0 0 0 0 0 1000 0;
#X obj 76 537 else/envgen~;
#X msg 76 337 duration \$1;
#X obj 87 236 random 100;
#X obj 87 198 bng 25 250 50 0 empty empty empty 17 7 0 10 -237178 -79060
-54094;
#X obj 87 164 pipe 1;
#X obj 76 289 +;
#X obj 76 16 inlet;
#X obj 76 638 outlet~;
#X obj 146 376 r setEnv;
#X obj 253 585 sel 0;
#X obj 253 633 bng 25 250 50 0 empty empty empty 17 7 0 10 -237178
-79060 -54094;
#X obj 26 203 * 0.5;
#X obj 131 16 r minMax;
#X obj 131 58 unpack f f;
#X obj 76 118 cyclone/scale 0 9 4500 10;
#X obj 76 585 cyclone/rampsmooth~ 441 441;
#X connect 0 0 1 0;
#X connect 1 0 16 0;
#X connect 1 1 10 0;
#X connect 2 0 0 0;
#X connect 3 0 6 1;
#X connect 4 0 3 0;
#X connect 4 0 12 0;
#X connect 5 0 4 0;
#X connect 6 0 2 0;
#X connect 7 0 15 0;
#X connect 9 0 0 0;
#X connect 10 0 11 0;
#X connect 11 0 4 0;
#X connect 11 0 0 0;
#X connect 12 0 6 0;
#X connect 13 0 14 0;
#X connect 14 0 15 3;
#X connect 14 1 15 4;
#X connect 15 0 3 1;
#X connect 15 0 5 0;
#X connect 15 0 12 0;
#X connect 16 0 8 0;
#X restore 1012 472 pd env;
#X obj 76 161 cyclone/rampsmooth~ 44100 44100;
#X obj 76 323 cyclone/scale~ 0 10 150 300;
#X obj 76 472 osc~ 100;
#X obj 202 472 osc~ 200;
#X obj 345 472 osc~ 200;
#X obj 477 472 osc~ 200;
#X obj 588 475 osc~ 200;
#X connect 5 0 6 0;
#X connect 5 0 9 0;
#X connect 5 0 18 0;
#X connect 5 0 26 0;
#X connect 5 0 27 0;
#X connect 5 0 28 0;
#X connect 5 0 29 0;
#X connect 6 0 30 0;
#X connect 7 0 30 1;
#X connect 7 0 30 2;
#X connect 8 0 14 1;
#X connect 9 0 13 0;
#X connect 10 0 15 1;
#X connect 11 0 16 1;
#X connect 12 0 17 1;
#X connect 13 0 8 0;
#X connect 13 1 10 0;
#X connect 13 2 11 0;
#X connect 13 3 12 0;
#X connect 14 0 33 0;
#X connect 15 0 34 0;
#X connect 16 0 35 0;
#X connect 17 0 36 0;
#X connect 18 0 19 1;
#X connect 19 0 0 0;
#X connect 20 0 1 0;
#X connect 21 0 2 0;
#X connect 22 0 3 0;
#X connect 23 0 4 0;
#X connect 24 0 25 0;
#X connect 24 0 31 3;
#X connect 25 0 31 4;
#X connect 26 0 20 1;
#X connect 27 0 21 1;
#X connect 28 0 22 1;
#X connect 29 0 23 1;
#X connect 30 0 31 0;
#X connect 31 0 14 0;
#X connect 31 0 15 0;
#X connect 31 0 16 0;
#X connect 31 0 17 0;
#X connect 31 0 32 0;
#X connect 32 0 19 0;
#X connect 33 0 20 0;
#X connect 34 0 21 0;
#X connect 35 0 22 0;
#X connect 36 0 23 0;
#X restore 213 103 pd osc;
#N canvas 971 382 799 639 sum 0;
#X obj 227 255 *~;
#X obj 227 147 inlet~;
#X obj 238 188 inlet~;
#X obj 124 468 outlet~;
#X obj 318 255 *~;
#X obj 318 147 inlet~;
#X obj 329 188 inlet~;
#X obj 417 255 *~;
#X obj 417 147 inlet~;
#X obj 428 188 inlet~;
#X obj 506 255 *~;
#X obj 506 147 inlet~;
#X obj 517 188 inlet~;
#X obj 602 255 *~;
#X obj 602 147 inlet~;
#X obj 613 188 inlet~;
#X obj 124 188 +~;
#X obj 124 370 *~;
#X obj 88 251 cyclone/rdiv~ 1;
#X connect 0 0 17 1;
#X connect 1 0 0 0;
#X connect 1 0 16 0;
#X connect 2 0 0 1;
#X connect 4 0 17 1;
#X connect 5 0 4 0;
#X connect 5 0 16 0;
#X connect 6 0 4 1;
#X connect 7 0 17 1;
#X connect 8 0 7 0;
#X connect 8 0 16 0;
#X connect 9 0 7 1;
#X connect 10 0 17 1;
#X connect 11 0 10 0;
#X connect 12 0 10 1;
#X connect 13 0 17 1;
#X connect 14 0 13 0;
#X connect 14 0 16 0;
#X connect 15 0 13 1;
#X connect 16 0 18 0;
#X connect 17 0 3 0;
#X connect 18 0 17 0;
#X restore 85 179 pd sum;
#X f 31;
#X obj 85 52 inlet;
#X obj 248 50 inlet;
#X obj 85 240 outlet~;
#X connect 0 0 2 0;
#X connect 0 1 2 2;
#X connect 0 2 2 4;
#X connect 0 3 2 6;
#X connect 0 4 2 8;
#X connect 1 0 2 1;
#X connect 1 1 2 3;
#X connect 1 2 2 5;
#X connect 1 3 2 7;
#X connect 1 4 2 9;
#X connect 2 0 5 0;
#X connect 3 0 0 0;
#X connect 3 0 1 0;
#X connect 4 0 1 1;
