#N canvas 953 201 450 300 12;
#X obj 130 25 noise~;
#X obj 127 256 outlet~;
#X obj 352 23 inlet~;
#X obj 128 117 cyclone/reson~ 6 83 100;
#X obj 128 196 cyclone/reson~ 1 83 33;
#X connect 0 0 3 0;
#X connect 2 0 3 2;
#X connect 2 0 4 2;
#X connect 3 0 4 0;
#X connect 4 0 1 0;
