#N canvas 953 201 450 300 12;
#X obj 130 25 noise~;
#X obj 127 279 outlet~;
#X obj 352 23 inlet~;
#X obj 128 117 cyclone/reson~ 6 83 100;
#X obj 128 196 cyclone/reson~ 4 83 50;
#X obj 129 238 clip~ -1 1;
#X connect 0 0 3 0;
#X connect 2 0 3 2;
#X connect 2 0 4 2;
#X connect 3 0 4 0;
#X connect 4 0 5 0;
#X connect 5 0 1 0;
